<svg width="49" height="48" viewBox="0 0 49 48" fill="none" xmlns="http://www.w3.org/2000/svg">
    <path d="M43.86 37.931c1.452-.82 2.64-2.836 2.64-4.478V14.547c0-1.642-1.188-3.657-2.64-4.478L27.14.616c-1.452-.821-3.828-.821-5.28 0L5.14 10.069c-1.452.82-2.64 2.836-2.64 4.478v18.906c0 1.642 1.188 3.657 2.64 4.478l16.72 9.453c1.452.821 3.828.821 5.28 0l16.72-9.453z" fill="url(#a)"/>
    <path fill-rule="evenodd" clip-rule="evenodd" d="M28.117 8 25.52 9.475v12.528l1.418.806v-9.54l4.872 2.765.005-.003.946.536.79-.445v-.753l-6.613-3.748v-1.304l1.18-.67 6.848 3.888v3.46l-3.288 1.855-.11-.054a1.39 1.39 0 0 0-.616-.15 1.43 1.43 0 0 0-1.419 1.438 1.43 1.43 0 0 0 1.42 1.437c.725 0 1.328-.555 1.402-1.29l.013-.125 3.317-1.872 3.077 1.747v7.728l-3.08 1.747-12.52-7.108V9.475L20.564 8l-8.265 4.693v4.282L8.5 19.128v9.414l3.797 2.155v4.29l8.266 4.693 2.599-1.475V25.65l-1.419-.805v9.567l-5.822-3.3-.79.446v.753l6.612 3.748v1.304l-1.18.67-6.847-3.888v-3.46l3.287-1.854.11.054c.202.099.409.148.617.148a1.43 1.43 0 0 0 1.418-1.437 1.43 1.43 0 0 0-1.418-1.436c-.726 0-1.329.554-1.403 1.29l-.013.124-3.318 1.872L9.92 27.7V19.97L13 18.224l12.52 7.109v12.872l2.598 1.475 8.267-4.693v-4.282l3.796-2.153v-9.413l-3.796-2.155v-4.29L28.117 8zm-14.4 5.535 6.846-3.887 1.18.67v1.303l-8.027 4.55v-2.636zm.735 3.866 7.291-4.134v8.274l-7.29-4.14zm12.485 8.737 7.292 4.141-7.292 4.134v-8.275zm0 11.225V36.06l8.028-4.55v2.635l-6.848 3.888-1.18-.67z" fill="#fff"/>
    <defs>
        <linearGradient id="a" x1="24.5" y1="0" x2="24.5" y2="48" gradientUnits="userSpaceOnUse">
            <stop stop-color="#13E5BF"/>
            <stop offset="1" stop-color="#01C38D"/>
        </linearGradient>
    </defs>
</svg>
