<svg width="49" height="48" viewBox="0 0 49 48" fill="none" xmlns="http://www.w3.org/2000/svg">
    <mask id="a" style="mask-type:alpha" maskUnits="userSpaceOnUse" x="0" y="0" width="49" height="48">
        <path d="M24.5 0c13.255 0 24 10.745 24 24s-10.745 24-24 24S.5 37.255.5 24s10.745-24 24-24z" fill="#fff"/>
    </mask>
    <g mask="url(#a)" fill-rule="evenodd" clip-rule="evenodd">
        <path d="M-9.5-10h68v68h-68v-68z" fill="#3F51B5"/>
        <path d="M-22.147-10h97.44v68h-97.44v-68z" fill="#ECEFF1"/>
    </g>
    <mask id="b" style="mask-type:alpha" maskUnits="userSpaceOnUse" x="9" y="0" width="31" height="6">
        <path d="M24.654 0a23.898 23.898 0 0 1 14.933 5.333H9.415A23.9 23.9 0 0 1 24.5 0l-.152.002.305-.002z" fill="#fff"/>
    </mask>
    <g mask="url(#b)">
        <path fill-rule="evenodd" clip-rule="evenodd" d="M-22.14-10H75.3v25.333h-97.44V-10z" fill="#F44336"/>
    </g>
    <mask id="c" style="mask-type:alpha" maskUnits="userSpaceOnUse" x="1" y="10" width="47" height="6">
        <path d="M44.458 10.666a23.917 23.917 0 0 1 2.675 5.332H1.866a23.914 23.914 0 0 1 2.675-5.332h39.917z" fill="#fff"/>
    </mask>
    <g mask="url(#c)">
        <path fill-rule="evenodd" clip-rule="evenodd" d="M-22.141.667h97.44V26h-97.44V.668z" fill="#F44336"/>
    </g>
    <mask id="d" style="mask-type:alpha" maskUnits="userSpaceOnUse" x="0" y="21" width="49" height="6">
        <path d="M48.353 21.332a24.269 24.269 0 0 1 0 5.335H.647a24.264 24.264 0 0 1 0-5.335h47.706z" fill="#fff"/>
    </mask>
    <g mask="url(#d)">
        <path fill-rule="evenodd" clip-rule="evenodd" d="M-22.14 11.334H75.3v25.333h-97.44V11.333z" fill="#F44336"/>
    </g>
    <mask id="e" style="mask-type:alpha" maskUnits="userSpaceOnUse" x="1" y="32" width="47" height="6">
        <path d="M47.135 32a23.915 23.915 0 0 1-2.677 5.335H4.542A23.916 23.916 0 0 1 1.866 32h45.269z" fill="#fff"/>
    </mask>
    <g mask="url(#e)">
        <path fill-rule="evenodd" clip-rule="evenodd" d="M-22.14 22H75.3v25.333h-97.44V22z" fill="#F44336"/>
    </g>
    <mask id="f" style="mask-type:alpha" maskUnits="userSpaceOnUse" x="9" y="42" width="31" height="6">
        <path d="M39.587 42.667A23.9 23.9 0 0 1 24.5 48a23.9 23.9 0 0 1-15.086-5.333h30.172z" fill="#fff"/>
    </mask>
    <g mask="url(#f)">
        <path fill-rule="evenodd" clip-rule="evenodd" d="M-22.14 32.666H75.3V58h-97.44V32.666z" fill="#F44336"/>
    </g>
    <mask id="g" style="mask-type:alpha" maskUnits="userSpaceOnUse" x="0" y="0" width="25" height="27">
        <path d="M24.5 0c.107 0 .215 0 .322.002l-.002 26.665H.647A24.264 24.264 0 0 1 .5 24c0-13.255 10.745-24 24-24z" fill="#fff"/>
    </mask>
    <g mask="url(#g)">
        <path fill-rule="evenodd" clip-rule="evenodd" d="M-22.14-10h56.96v46.666h-56.96V-10z" fill="#3F51B5"/>
    </g>
    <mask id="h" style="mask-type:alpha" maskUnits="userSpaceOnUse" x="10" y="3" width="6" height="6">
        <path d="m12.939 3.556.818 1.757 1.822.278-1.32 1.368.316 1.93-1.636-.91-1.636.91.316-1.93-1.32-1.368 1.822-.278.818-1.757z" fill="#fff"/>
    </mask>
    <g mask="url(#h)">
        <path fill-rule="evenodd" clip-rule="evenodd" d="M.299-6.444h25.28V18.89H.299V-6.444z" fill="#fff"/>
    </g>
    <mask id="i" style="mask-type:alpha" maskUnits="userSpaceOnUse" x="16" y="3" width="7" height="6">
        <path d="m19.54 3.556.818 1.757 1.822.278-1.32 1.368.316 1.93-1.636-.91-1.636.91.316-1.93L16.9 5.59l1.822-.278.818-1.757z" fill="#fff"/>
    </mask>
    <g mask="url(#i)">
        <path fill-rule="evenodd" clip-rule="evenodd" d="M6.9-6.444h25.28V18.89H6.9V-6.444z" fill="#fff"/>
    </g>
    <mask id="j" style="mask-type:alpha" maskUnits="userSpaceOnUse" x="3" y="17" width="6" height="7">
        <path d="m5.9 17.778.817 1.757 1.822.278-1.32 1.368.316 1.93-1.636-.909-1.636.91.316-1.93-1.32-1.369 1.822-.278.818-1.757z" fill="#fff"/>
    </mask>
    <g mask="url(#j)">
        <path fill-rule="evenodd" clip-rule="evenodd" d="M-6.74 7.778h25.28v25.334H-6.74V7.777z" fill="#fff"/>
    </g>
    <mask id="k" style="mask-type:alpha" maskUnits="userSpaceOnUse" x="10" y="17" width="6" height="7">
        <path d="m12.939 17.778.818 1.757 1.822.278-1.32 1.368.316 1.93-1.636-.909-1.636.91.316-1.93-1.32-1.369 1.822-.278.818-1.757z" fill="#fff"/>
    </mask>
    <g mask="url(#k)">
        <path fill-rule="evenodd" clip-rule="evenodd" d="M.299 7.778h25.28v25.334H.299V7.777z" fill="#fff"/>
    </g>
    <mask id="l" style="mask-type:alpha" maskUnits="userSpaceOnUse" x="16" y="17" width="7" height="7">
        <path d="m19.54 17.778.818 1.757 1.822.278-1.32 1.368.316 1.93-1.636-.909-1.636.91.316-1.93-1.32-1.369 1.822-.278.818-1.757z" fill="#fff"/>
    </mask>
    <g mask="url(#l)">
        <path fill-rule="evenodd" clip-rule="evenodd" d="M6.9 7.778h25.28v25.334H6.9V7.777z" fill="#fff"/>
    </g>
    <mask id="m" style="mask-type:alpha" maskUnits="userSpaceOnUse" x="5" y="10" width="6" height="6">
        <path d="m7.66 10.666.817 1.757 1.822.278-1.32 1.368.316 1.93-1.636-.91-1.636.91.316-1.93-1.32-1.368 1.822-.278.818-1.757z" fill="#fff"/>
    </mask>
    <g mask="url(#m)">
        <path fill-rule="evenodd" clip-rule="evenodd" d="M-4.982.666h25.28v25.333h-25.28V.666z" fill="#fff"/>
    </g>
    <mask id="n" style="mask-type:alpha" maskUnits="userSpaceOnUse" x="12" y="10" width="6" height="6">
        <path d="m14.699 10.666.818 1.757 1.822.278-1.32 1.368.316 1.93-1.636-.91-1.636.91.316-1.93-1.32-1.368 1.822-.278.818-1.757z" fill="#fff"/>
    </mask>
    <g mask="url(#n)">
        <path fill-rule="evenodd" clip-rule="evenodd" d="M2.059.666h25.28v25.333H2.059V.666z" fill="#fff"/>
    </g>
    <mask id="o" style="mask-type:alpha" maskUnits="userSpaceOnUse" x="18" y="10" width="6" height="6">
        <path d="m21.3 10.666.818 1.757 1.822.278-1.32 1.368.316 1.93-1.636-.91-1.637.91.317-1.93-1.32-1.368 1.822-.278.818-1.757z" fill="#fff"/>
    </mask>
    <g mask="url(#o)">
        <path fill-rule="evenodd" clip-rule="evenodd" d="M8.66.666h25.28v25.333H8.66V.666z" fill="#fff"/>
    </g>
</svg>
