<svg width="49" height="49" viewBox="0 0 49 49" fill="none" xmlns="http://www.w3.org/2000/svg">
    <path d="M44.498 19.306C42.327 10.02 33.993 3.102 24.045 3.102c-1.882 0-3.705.248-5.44.711l.006-.004a20.855 20.855 0 0 0-4.582 1.83C7.646 9.11 3.262 15.791 3.049 23.517l-.991-2.051a.6.6 0 0 0-1.08.522l2.058 4.26a.6.6 0 0 0 1.045.063l2.553-3.983a.6.6 0 1 0-1.01-.648l-1.367 2.133c.1-7.375 4.257-13.822 10.384-17.14 2.798-1.511 6-2.37 9.404-2.37 9.282 0 17.072 6.386 19.218 15.004h1.235z" fill="url(#a)"/>
    <path d="M44.96 22.125a.6.6 0 0 0-1.047-.014l-2.365 4.098a.6.6 0 0 0 1.04.6l1.253-2.173a19.703 19.703 0 0 1-3.43 10.624 19.874 19.874 0 0 1-7.837 6.716l-.022.019a19.727 19.727 0 0 1-8.508 1.915c-9.262 0-17.039-6.358-19.204-14.947H3.604C5.796 38.22 14.116 45.11 24.044 45.11c7.229 0 13.604-3.651 17.383-9.21a20.89 20.89 0 0 0 3.618-11.102l1.115 2.058a.6.6 0 0 0 1.055-.572l-2.255-4.16z" fill="url(#b)"/>
    <path fill-rule="evenodd" clip-rule="evenodd" d="M24.538 11.429a.904.904 0 0 0-.896 0L13.2 17.383a.904.904 0 0 0-.457.786v11.867c0 .325.174.625.457.786l10.442 5.954a.904.904 0 0 0 .896 0l10.442-5.954a.904.904 0 0 0 .457-.786V18.17a.904.904 0 0 0-.456-.786L24.538 11.43zm-1.391-.869a1.904 1.904 0 0 1 1.886 0l10.443 5.954c.594.34.96.97.96 1.655v11.867c0 .684-.366 1.316-.96 1.655l-10.443 5.954a1.904 1.904 0 0 1-1.886 0l-10.443-5.954a1.904 1.904 0 0 1-.96-1.655V18.17c0-.684.366-1.316.96-1.655l10.443-5.954z" fill="url(#c)"/>
    <path fill-rule="evenodd" clip-rule="evenodd" d="M24.09 40.725c9.18 0 16.622-7.443 16.622-16.623 0-9.18-7.442-16.622-16.622-16.622S7.468 14.922 7.468 24.102 14.91 40.725 24.09 40.725zM23.053 9.214a2.094 2.094 0 0 1 2.074 0l11.481 6.546a2.094 2.094 0 0 1 1.057 1.82v13.047c0 .752-.403 1.447-1.057 1.82l-11.48 6.546a2.094 2.094 0 0 1-2.075 0l-11.481-6.547a2.094 2.094 0 0 1-1.057-1.819V17.58c0-.752.403-1.446 1.057-1.819l11.48-6.546z" fill="#13E5BF" fill-opacity=".1"/>
    <path fill-rule="evenodd" clip-rule="evenodd" d="m26.284 14.904-1.51.856v7.276l.824.468v-5.54l2.83 1.606.002-.002.55.311.459-.258v-.438l-3.84-2.176v-.758l.684-.388 3.978 2.257v2.01l-1.91 1.077-.064-.031a.807.807 0 0 0-.357-.087.83.83 0 0 0-.825.835c0 .46.37.834.825.834a.823.823 0 0 0 .814-.75l.008-.071 1.926-1.088 1.787 1.015v4.488l-1.789 1.015-7.27-4.129V15.76l-1.51-.856-4.8 2.725v2.487l-2.205 1.25v5.468l2.205 1.252v2.491l4.8 2.726 1.51-.857v-7.292l-.824-.467v5.556L19.2 28.327l-.458.259v.437l3.84 2.177v.757l-.686.389-3.976-2.258v-2.01l1.909-1.076.064.031a.806.806 0 0 0 .358.086.83.83 0 0 0 .824-.834.83.83 0 0 0-.824-.835.823.823 0 0 0-.815.75l-.007.072-1.927 1.087-1.787-1.014v-4.489l1.789-1.014 7.27 4.128v7.476l1.51.857 4.8-2.726V28.09l2.206-1.25v-5.467l-2.206-1.252V17.63l-4.8-2.725zm-8.364 3.214 3.976-2.257.685.389v.756L17.92 19.65v-1.53zm4.661-.155-4.234 2.4 4.234 2.405v-4.805zm3.017 7.475 4.235 2.405-4.235 2.4v-4.805zm0 5.762v.757l.686.389 3.977-2.258v-1.53L25.598 31.2z" fill="url(#d)"/>
    <defs>
        <linearGradient id="a" x1="22.707" y1="29.946" x2="22.707" y2="3.102" gradientUnits="userSpaceOnUse">
            <stop stop-color="#13E5BF"/>
            <stop offset="1" stop-color="#01C38D"/>
        </linearGradient>
        <linearGradient id="b" x1="25.446" y1="48.444" x2="25.446" y2="21.811" gradientUnits="userSpaceOnUse">
            <stop stop-color="#13E5BF"/>
            <stop offset="1" stop-color="#01C38D"/>
        </linearGradient>
        <linearGradient id="c" x1="39.971" y1="24.102" x2="11.743" y2="24.102" gradientUnits="userSpaceOnUse">
            <stop stop-color="#13E5BF"/>
            <stop offset="1" stop-color="#01C38D"/>
        </linearGradient>
        <linearGradient id="d" x1="14.891" y1="14.904" x2="14.891" y2="33.303" gradientUnits="userSpaceOnUse">
            <stop stop-color="#13E5BF"/>
            <stop offset="1" stop-color="#01C38D"/>
            <stop offset="1" stop-color="#01C38D"/>
        </linearGradient>
    </defs>
</svg>
