<svg width="49" height="49" viewBox="0 0 49 49" fill="none" xmlns="http://www.w3.org/2000/svg">
    <path fill-rule="evenodd" clip-rule="evenodd" d="M19.07 6.8h-8.593a1.52 1.52 0 0 0-1.16.528l-6.902 8.716c-.232.275-.338 1.209-.323 1.539h14.325L19.07 6.801zM28.24 6.8h8.592c.451 0 .878.195 1.16.528l6.902 8.716c.232.275.339 1.209.324 1.539H30.892L28.24 6.801z" fill="#13E5BF" fill-opacity=".2"/>
    <path fill-rule="evenodd" clip-rule="evenodd" d="M22.814 41.115c.23.243.53.383.84.429l-7.188-24.56H2.69c.014.315.138.625.373.872l19.752 23.26zM24.495 41.115c-.23.243-.53.383-.84.429l7.188-24.56H44.62a1.347 1.347 0 0 1-.372.872l-19.753 23.26z" fill="#13E5BF" fill-opacity=".2"/>
    <path fill-rule="evenodd" clip-rule="evenodd" d="M44.847 18.182c.47-.559.555-1.805.118-2.396L37.383 6.18a1.38 1.38 0 0 0-1.106-.576H11.029c-.43 0-.837.212-1.106.576l-7.464 9.607c-.437.59-.47 1.837 0 2.396l20.147 24.06a1.346 1.346 0 0 0 2.094 0l20.147-24.06zM36.42 6.891l.011.015 7.48 9.48h-12.69L28.686 6.8h7.59c.027 0 .086.013.143.09zm-8.972-.09 2.533 9.584H17.325l2.533-9.584h7.59zm-8.83 0-2.532 9.584H3.51l7.367-9.483.008-.011c.057-.077.116-.09.143-.09h7.59zM3.52 17.583l18.856 22.518-6.452-22.518H3.52zm21.41 22.519 18.856-22.519H31.382L24.93 40.102zm-1.277.106-6.482-22.625h12.964l-6.482 22.625z" fill="url(#a)"/>
    <defs>
        <linearGradient id="a" x1="51.422" y1="24.172" x2="2.119" y2="24.172" gradientUnits="userSpaceOnUse">
            <stop stop-color="#13E5BF"/>
            <stop offset="1" stop-color="#01C38D"/>
        </linearGradient>
    </defs>
</svg>
