<svg width="49" height="49" viewBox="0 0 49 49" fill="none" xmlns="http://www.w3.org/2000/svg">
    <path fill-rule="evenodd" clip-rule="evenodd" d="M25.666 3.39a3.215 3.215 0 0 0-3.152 0L6.529 12.38a3.215 3.215 0 0 0-1.639 2.803v17.84c0 1.16.627 2.232 1.64 2.801l15.984 8.992c.979.55 2.174.55 3.152 0l15.985-8.992a3.215 3.215 0 0 0 1.64-2.802V15.183a3.215 3.215 0 0 0-1.64-2.802L25.666 3.389zm.044 4.858a3.215 3.215 0 0 0-3.24 0l-11.185 6.524A3.215 3.215 0 0 0 9.69 17.55v13.107c0 1.143.608 2.2 1.595 2.777l11.185 6.525a3.215 3.215 0 0 0 3.24 0l11.185-6.525a3.215 3.215 0 0 0 1.595-2.777V17.549a3.215 3.215 0 0 0-1.595-2.777L25.71 8.248z" fill="#13E5BF" fill-opacity=".2"/>
    <path fill-rule="evenodd" clip-rule="evenodd" d="m24.678 4.211 16.8 9.45a1.2 1.2 0 0 1 .612 1.046V33.5a1.2 1.2 0 0 1-.612 1.046l-16.8 9.45a1.2 1.2 0 0 1-1.176 0l-16.8-9.45A1.2 1.2 0 0 1 6.09 33.5V14.707a1.2 1.2 0 0 1 .612-1.046l16.8-9.45a1.2 1.2 0 0 1 1.176 0zm-1.765-1.046a2.4 2.4 0 0 1 2.354 0l16.8 9.45a2.4 2.4 0 0 1 1.223 2.092V33.5a2.4 2.4 0 0 1-1.223 2.092l-16.8 9.45a2.4 2.4 0 0 1-2.354 0l-16.8-9.45A2.4 2.4 0 0 1 4.89 33.5V14.707a2.4 2.4 0 0 1 1.223-2.092l16.8-9.45zm2.07 10.055 1.968-1.117 6.263 3.555v3.25l2.876 1.633v7.131l-2.876 1.631v3.244l-6.263 3.556-1.968-1.118v-9.752l-9.484-5.385-2.334 1.324v5.855l2.331 1.323 2.514-1.418.01-.094a1.073 1.073 0 0 1 1.062-.978c.593 0 1.075.488 1.075 1.088 0 .6-.482 1.089-1.075 1.089a1.05 1.05 0 0 1-.466-.113l-.084-.04-2.49 1.404v2.622l5.187 2.945.893-.508v-.987l-5.008-2.84v-.57l.598-.338 4.41 2.5v-7.248l1.076.61v9.511l-1.97 1.118-6.261-3.556v-3.25l-2.877-1.633v-7.13l2.877-1.632v-3.244l6.262-3.555 1.969 1.117v9.752l9.484 5.385 2.333-1.323v-5.855l-2.33-1.324-2.514 1.42-.01.093a1.074 1.074 0 0 1-1.063.978 1.083 1.083 0 0 1-1.075-1.089c0-.6.482-1.089 1.075-1.089.158 0 .315.038.467.113l.083.041 2.491-1.405v-2.621l-5.188-2.945-.893.507v.988l5.009 2.84v.57l-.599.337-.716-.406-.004.002-3.69-2.095v7.227l-1.075-.61V13.22zm-3.754.13-5.188 2.946v1.997l6.081-3.447v-.988l-.893-.507zm-4.63 5.875 5.523-3.132v6.268L16.6 19.225zm14.982 9.756-5.523-3.137v6.269l5.523-3.132zm-5.523 5.366v-.987l6.081-3.447v1.997l-5.188 2.945-.893-.508z" fill="url(#a)"/>
    <defs>
        <linearGradient id="a" x1="4.89" y1="2.857" x2="4.89" y2="45.35" gradientUnits="userSpaceOnUse">
            <stop stop-color="#13E5BF"/>
            <stop offset="1" stop-color="#01C38D"/>
            <stop offset="1" stop-color="#01C38D"/>
        </linearGradient>
    </defs>
</svg>
