<svg width="49" height="49" viewBox="0 0 49 49" fill="none" xmlns="http://www.w3.org/2000/svg">
    <path fill-rule="evenodd" clip-rule="evenodd" d="M22.914 3.665a2.4 2.4 0 0 1 2.353 0l11.322 6.368a4.985 4.985 0 0 0-1.458 4.21L25.3 8.508a2.4 2.4 0 0 0-2.419 0l-12 7a2.4 2.4 0 0 0-1.19 2.073v14.043a2.4 2.4 0 0 0 1.19 2.073l12 7a2.4 2.4 0 0 0 2.419 0l12-7a2.4 2.4 0 0 0 1.19-2.073V18.342c.503.17 1.04.261 1.6.261a4.98 4.98 0 0 0 3.2-1.158v16.554a2.4 2.4 0 0 1-1.223 2.092l-16.8 9.45a2.4 2.4 0 0 1-2.353 0l-16.8-9.45a2.4 2.4 0 0 1-1.224-2.092V15.206a2.4 2.4 0 0 1 1.224-2.091l16.8-9.45z" fill="#13E5BF" fill-opacity=".2"/>
    <path fill-rule="evenodd" clip-rule="evenodd" d="M22.913 3.666a2.4 2.4 0 0 1 2.354 0l10.42 5.861a6 6 0 1 1 7.603 9.152V34a2.4 2.4 0 0 1-1.224 2.092l-16.8 9.45a2.4 2.4 0 0 1-2.353 0l-16.8-9.45A2.4 2.4 0 0 1 4.89 34V15.207a2.4 2.4 0 0 1 1.223-2.091l16.8-9.45zm20.377 13.78a4.984 4.984 0 0 1-3.2 1.158 5 5 0 1 1 3.2-1.159zm-1.2 1.816V34a1.2 1.2 0 0 1-.612 1.046l-16.8 9.45a1.2 1.2 0 0 1-1.176 0l-16.8-9.45A1.2 1.2 0 0 1 6.09 34V15.207a1.2 1.2 0 0 1 .612-1.046l16.8-9.45a1.2 1.2 0 0 1 1.176 0l10.28 5.783a6 6 0 0 0 7.132 8.768zM24.983 13.72l1.968-1.117 6.263 3.555v3.25l2.876 1.634v7.13l-2.876 1.631v3.245l-6.263 3.555-1.968-1.117v-9.752l-9.484-5.385-2.334 1.323v5.855l2.331 1.323 2.513-1.418.01-.094a1.073 1.073 0 0 1 1.063-.978c.593 0 1.075.488 1.075 1.089 0 .6-.482 1.088-1.075 1.088a1.05 1.05 0 0 1-.467-.112l-.083-.041-2.49 1.404v2.622l5.187 2.945.893-.507v-.988l-5.009-2.84v-.57l.599-.337 4.41 2.5v-7.25l1.075.611v9.512l-1.968 1.117-6.262-3.555v-3.25l-2.877-1.633v-7.132l2.877-1.63v-3.245l6.262-3.555 1.968 1.117v9.752l9.484 5.385 2.334-1.323V21.68l-2.33-1.324-2.514 1.418-.01.095a1.074 1.074 0 0 1-1.063.977 1.083 1.083 0 0 1-1.075-1.089c0-.6.482-1.088 1.075-1.088.158 0 .315.038.467.113l.083.04 2.491-1.404v-2.622l-5.188-2.945-.893.507v.988l5.009 2.84v.57l-.599.337-.716-.406-.004.002-3.69-2.095v7.228l-1.075-.611v-9.49zm-3.755.131-5.187 2.945v1.997l6.081-3.447v-.987l-.893-.508zM16.6 19.725l5.523-3.132v6.268L16.6 19.726zm14.982 9.756-5.523-3.137v6.269l5.523-3.132zm-5.523 5.367v-.988l6.081-3.447v1.997l-5.188 2.945-.893-.507z" fill="url(#a)"/>
    <path d="M41.44 10.653h1.15l-3.85 6.3h-1.15l3.85-6.3zm.25 6.35c-.2 0-.387-.034-.56-.1a1.432 1.432 0 0 1-.74-.74c-.067-.174-.1-.36-.1-.56 0-.2.033-.383.1-.55.073-.174.173-.324.3-.45a1.423 1.423 0 0 1 1-.4c.2 0 .383.036.55.11a1.276 1.276 0 0 1 .74.74c.073.166.11.35.11.55a1.421 1.421 0 0 1-.4 1 1.398 1.398 0 0 1-.45.3c-.167.067-.35.1-.55.1zm0-.85a.53.53 0 0 0 .39-.16.53.53 0 0 0 .16-.39.53.53 0 0 0-.16-.39.53.53 0 0 0-.39-.16.531.531 0 0 0-.39.16.531.531 0 0 0-.16.39.53.53 0 0 0 .16.39.53.53 0 0 0 .39.16zm-3.2-2.75c-.2 0-.387-.034-.56-.1a1.432 1.432 0 0 1-.74-.74c-.067-.174-.1-.36-.1-.56 0-.2.033-.383.1-.55.073-.173.173-.323.3-.45a1.423 1.423 0 0 1 1-.4c.2 0 .383.037.55.11a1.276 1.276 0 0 1 .74.74c.073.167.11.35.11.55a1.421 1.421 0 0 1-.4 1 1.398 1.398 0 0 1-.45.3c-.167.066-.35.1-.55.1zm0-.85a.53.53 0 0 0 .39-.16.53.53 0 0 0 .16-.39.53.53 0 0 0-.16-.39.53.53 0 0 0-.39-.16.531.531 0 0 0-.39.16.531.531 0 0 0-.16.39.53.53 0 0 0 .16.39.53.53 0 0 0 .39.16z" fill="url(#b)"/>
    <defs>
        <linearGradient id="a" x1="51.986" y1="24.604" x2="4.89" y2="24.604" gradientUnits="userSpaceOnUse">
            <stop stop-color="#13E5BF"/>
            <stop offset="1" stop-color="#01C38D"/>
        </linearGradient>
        <linearGradient id="b" x1="43.949" y1="13.803" x2="37.09" y2="13.803" gradientUnits="userSpaceOnUse">
            <stop stop-color="#13E5BF"/>
            <stop offset="1" stop-color="#01C38D"/>
        </linearGradient>
    </defs>
</svg>
