<svg width="49" height="49" viewBox="0 0 49 49" fill="none" xmlns="http://www.w3.org/2000/svg">
    <path d="M31.276 16.502c2.92 2.195 4.814 5.787 4.814 9.85 0 4.42-2.07 7.818-5.428 9.936-1.556.99-3.782 1.981-5.807 2.18a6.06 6.06 0 0 0 4.829-3.47c.208-.436.367-.97.386-1.496a3.956 3.956 0 0 0-1.704-3.684 5.856 5.856 0 0 1-2.656-5.714c-2.11 1.317-3.617 3.515-3.973 6.09a2.776 2.776 0 0 1-1.14-2.248c0-.148.01-.297.03-.436a6.039 6.039 0 0 0 .416 10.112c.916.561 1.978.877 3.128.882h-.024c-4.631 0-8.257-2.88-10.088-7.02-.375-.857-.677-1.935-.723-2.985a8.195 8.195 0 0 1-.046-.828c0-2.715 1.3-5.113 3.277-6.538 3.103-2.09 5.153-5.739 5.153-9.889 0-.52-.027-1.04-.091-1.54 4.018 2.628 6.873 7.038 7.55 12.18 1.31-1.02 2.16-2.657 2.16-4.506 0-.299-.017-.587-.063-.876z" fill="#13E5BF" fill-opacity=".2"/>
    <path fill-rule="evenodd" clip-rule="evenodd" d="M25.267 3.164a2.4 2.4 0 0 0-2.354 0l-16.8 9.45a2.4 2.4 0 0 0-1.223 2.092v18.793a2.4 2.4 0 0 0 1.223 2.091l16.8 9.45a2.4 2.4 0 0 0 2.354 0l16.8-9.45A2.4 2.4 0 0 0 43.29 33.5V14.706a2.4 2.4 0 0 0-1.224-2.092l-16.8-9.45zm.022 3.63a2.4 2.4 0 0 0-2.398 0L9.69 14.41a2.4 2.4 0 0 0-1.201 2.078v15.228a2.4 2.4 0 0 0 1.2 2.079l13.2 7.615a2.4 2.4 0 0 0 2.4 0l13.2-7.615a2.4 2.4 0 0 0 1.2-2.079V16.488a2.4 2.4 0 0 0-1.2-2.078l-13.2-7.616z" fill="#13E5BF" fill-opacity=".2"/>
    <path d="M16.89 31.003a7.527 7.527 0 0 1 3.044-6.08c1.316-.803 4.066-2.812 4.543-4.42-.036.305-.06.623-.06.954 0 .974.41 1.933 1.027 2.819a8.571 8.571 0 0 0-3.707 5.917 2.775 2.775 0 0 1-1.14-2.248c0-.148.01-.297.03-.436a6.039 6.039 0 0 0 .416 10.112 5.97 5.97 0 0 0 2.891.876 7.02 7.02 0 0 1-3.5-1.083c-2.117-1.297-3.544-3.683-3.544-6.41zM24.204 38.502h.01c2.914 0 5.435-1.773 6.588-4.33a4.96 4.96 0 0 0 .464-1.847c.012-.172.024-.343.024-.514 0-1.676-.82-3.156-2.07-4.037-1.123-.74-2.547-1.872-3.552-3.19a5.856 5.856 0 0 0 2.698 5.233A3.957 3.957 0 0 1 30.07 33.5a3.924 3.924 0 0 1-.386 1.495 6.056 6.056 0 0 1-5.48 3.506z" fill="#13E5BF" fill-opacity=".2"/>
    <path fill-rule="evenodd" clip-rule="evenodd" d="M28.938 20.482c-.854-3.99-3.037-7.451-6.03-9.851-.412-.33-.839-.64-1.28-.929.064.497.091 1.012.092 1.527v.014c0 4.15-2.05 7.8-5.153 9.889-1.977 1.425-3.277 3.822-3.277 6.538 0 .279.018.558.046.828.045 1.05.348 2.128.723 2.985 1.83 4.14 5.457 7.02 10.088 7.02h.047c.223 0 .444-.013.66-.036 2.025-.199 4.252-1.19 5.807-2.18 3.36-2.118 5.429-5.517 5.429-9.936 0-3.444-1.361-6.55-3.554-8.753a11.85 11.85 0 0 0-1.26-1.098 5.94 5.94 0 0 1 .023 1.575 5.733 5.733 0 0 1-1.074 2.731c-.3.407-.652.77-1.046 1.077-.062-.474-.143-.94-.241-1.401zm.358 15.222c.251-.14.493-.284.72-.43l.005-.002c3.023-1.907 4.869-4.928 4.869-8.921 0-2.776-.974-5.296-2.572-7.212a6.83 6.83 0 0 1-2.4 3.69l-1.654 1.29-.274-2.08c-.518-3.926-2.396-7.386-5.103-9.849-.288 4.15-2.449 7.774-5.633 9.926-1.657 1.2-2.764 3.231-2.764 5.554 0 .228.015.465.04.706l.003.035.002.035c.037.871.294 1.803.622 2.553.908 2.054 2.277 3.732 3.986 4.839a6.008 6.008 0 0 1-1.053-3.407 6.014 6.014 0 0 1 1.996-4.486c.171-.155.352-.3.54-.436-.02.139-.03.287-.03.436 0 .34.062.667.173.969l.01.025c.192.505.527.94.957 1.254.066-.476.172-.94.313-1.387a8.576 8.576 0 0 1 2.608-3.931c.33-.283.683-.541 1.053-.773a5.944 5.944 0 0 0-.009 1.468 5.86 5.86 0 0 0 2.665 4.247A3.956 3.956 0 0 1 30.07 33.5a3.924 3.924 0 0 1-.386 1.495 6.032 6.032 0 0 1-.389.708zm-4.58 1.57a4.86 4.86 0 0 0 3.88-2.783l.005-.012a2.73 2.73 0 0 0 .27-1.023v-.02l.002-.02c.01-.146.017-.242.017-.331 0-.938-.469-1.769-1.19-2.27a7.07 7.07 0 0 1-3.038-4.26 7.31 7.31 0 0 0-1.737 3.803l-.275 1.985-1.62-1.18a3.972 3.972 0 0 1-1.075-1.181 4.836 4.836 0 0 0 1.702 6.608l.013.007c.73.447 1.575.701 2.501.705.178 0 .36-.01.545-.028z" fill="url(#a)"/>
    <path fill-rule="evenodd" clip-rule="evenodd" d="M25.267 3.164a2.4 2.4 0 0 0-2.354 0l-16.8 9.45a2.4 2.4 0 0 0-1.223 2.092v18.793a2.4 2.4 0 0 0 1.223 2.091l16.8 9.45a2.4 2.4 0 0 0 2.354 0l16.8-9.45A2.4 2.4 0 0 0 43.29 33.5V14.706a2.4 2.4 0 0 0-1.224-2.092l-16.8-9.45zM41.477 13.66l-16.8-9.45a1.2 1.2 0 0 0-1.176 0l-16.8 9.45a1.2 1.2 0 0 0-.612 1.046v18.793c0 .433.234.833.612 1.046l16.8 9.45a1.2 1.2 0 0 0 1.176 0l16.8-9.45a1.2 1.2 0 0 0 .612-1.046V14.706a1.2 1.2 0 0 0-.612-1.046z" fill="url(#b)"/>
    <defs>
        <linearGradient id="a" x1="4.89" y1="2.856" x2="4.89" y2="45.349" gradientUnits="userSpaceOnUse">
            <stop stop-color="#13E5BF"/>
            <stop offset="1" stop-color="#01C38D"/>
        </linearGradient>
        <linearGradient id="b" x1="4.89" y1="2.856" x2="4.89" y2="45.349" gradientUnits="userSpaceOnUse">
            <stop stop-color="#13E5BF"/>
            <stop offset="1" stop-color="#01C38D"/>
        </linearGradient>
    </defs>
</svg>
